<?xml version="1.0" encoding="iso-8859-1"?>
<!-- Generator: Adobe Illustrator 19.1.0, SVG Export Plug-In . SVG Version: 6.00 Build 0)  -->
<svg version="1.1" id="Capa_1" xmlns="http://www.w3.org/2000/svg" xmlns:xlink="http://www.w3.org/1999/xlink" x="0px" y="0px"
	 viewBox="0 0 119.5 119.5" style="enable-background:new 0 0 119.5 119.5;" xml:space="preserve">
<g>
	<path d="M59.668,113.552c-9.413,0-13.947-5.135-14.136-5.353C37.633,97.722,31.659,97.55,31.416,97.55c-0.004,0-0.007,0-0.007,0
		c-10.469,0.002-12.356,9.844-12.432,10.263c-0.097,0.536-0.477,0.98-0.993,1.156c-0.516,0.176-1.086,0.061-1.491-0.305
		c-6.06-5.483-10.256-14.743-12.471-27.522C2.392,71.736,2.495,64.019,2.5,63.695c0-12.823,4.354-24.959,12.589-35.073
		c0.523-0.642,1.468-0.739,2.11-0.216s0.739,1.468,0.216,2.11C9.62,40.089,5.5,51.57,5.5,63.719
		c-0.005,0.314-0.294,28.011,11.301,40.999c1.444-3.724,5.281-10.167,14.533-10.167c0.242-0.005,7.476-0.226,16.493,11.714
		c0.39,0.424,4.146,4.286,11.841,4.286c0.828,0,1.5,0.671,1.5,1.5S60.496,113.552,59.668,113.552z"/>
	<path d="M21.848,25.136c-0.405,0-0.81-0.164-1.105-0.486c-0.56-0.61-0.52-1.559,0.092-2.12
		C31.511,12.734,45.287,7.338,59.625,7.338c0.828,0,1.5,0.671,1.5,1.5s-0.672,1.5-1.5,1.5c-13.585,0-26.641,5.115-36.764,14.403
		C22.574,25.005,22.21,25.136,21.848,25.136z"/>
	<path d="M34.5,61.385c-6.524,0-11.832-5.309-11.832-11.833c0-6.524,5.308-11.833,11.832-11.833c6.525,0,11.834,5.308,11.834,11.833
		C46.334,56.077,41.025,61.385,34.5,61.385z M34.5,40.719c-4.87,0-8.832,3.962-8.832,8.833c0,4.871,3.962,8.833,8.832,8.833
		c4.871,0,8.834-3.963,8.834-8.833C43.334,44.682,39.371,40.719,34.5,40.719z"/>
	<path d="M34.334,69.969c-11.259,0-20.418-9.159-20.418-20.417c0-6.582,3.203-12.798,8.568-16.628
		c0.672-0.48,1.609-0.326,2.092,0.349c0.481,0.674,0.325,1.611-0.35,2.092c-4.577,3.269-7.311,8.572-7.311,14.187
		c0,9.604,7.813,17.417,17.418,17.417c7.664,0,14.532-5.127,16.702-12.467c0.236-0.795,1.074-1.248,1.863-1.013
		c0.795,0.235,1.248,1.069,1.014,1.864C51.369,63.959,43.317,69.969,34.334,69.969z"/>
	<circle cx="34.334" cy="49.552" r="2.566"/>
	<path d="M59.749,82.427c-0.59,0-1.138-0.349-1.378-0.909c-4.164-9.716-5.345-19.83-5.393-20.255
		c-0.163-3.093,0.548-5.395,2.104-6.934c1.971-1.951,4.479-1.855,4.762-1.837c0.79,0.049,1.406,0.705,1.406,1.497v26.938
		c0,0.712-0.501,1.326-1.198,1.469C59.95,82.417,59.85,82.427,59.749,82.427z M58.25,55.772c-0.362,0.148-0.745,0.373-1.082,0.714
		c-0.905,0.915-1.31,2.439-1.201,4.531c0.003,0.005,0.577,4.9,2.283,11.022V55.772z"/>
	<path d="M59.399,92.766c-1.421,0-3.875-1.193-7.636-6.701c-1.24-1.815-2.481-2.757-3.793-2.88
		c-2.516-0.226-5.452,2.471-8.242,5.261l-3.392,3.055c-0.397,0.358-0.958,0.478-1.466,0.312
		c-0.199-0.064-19.924-6.701-23.021-28.045c-0.119-0.558-3.164-15.972,9.03-29.711c0.551-0.619,1.497-0.677,2.118-0.126
		c0.619,0.55,0.676,1.498,0.126,2.118c-11.161,12.576-8.351,27.056-8.321,27.2c2.504,17.234,16.687,23.99,20.205,25.413l2.657-2.391
		c3.237-3.24,6.758-6.436,10.585-6.072c2.225,0.208,4.24,1.612,5.99,4.175c3.21,4.7,4.874,5.299,5.162,5.37
		c0.675-0.125,1.374,0.238,1.65,0.9c0.318,0.765-0.044,1.643-0.809,1.961C60.02,92.698,59.739,92.766,59.399,92.766z"/>
	<path d="M54.502,59.885c-0.02,0-0.039,0-0.059-0.001c-0.644-0.025-1.199-0.458-1.381-1.076c-0.037-0.128-3.863-12.817-13.43-17.138
		c-2.412-1.09-4.761-1.904-7.247-2.767c-8.011-2.779-16.295-5.652-27.014-17.883c-0.543-0.641-5.16-6.196-5.37-9.904
		C-0.002,11.036,0,10.958,0.008,10.881c-0.004-0.052-0.006-0.102-0.006-0.152c0-2.613,2.126-4.739,4.738-4.739
		c1.229,0,2.415,0.49,3.3,1.354C8.18,7.44,8.305,7.563,8.405,7.709l0.211,0.298c0.011,0.014,0.062,0.088,0.071,0.103
		c1.99,2.778,12.806,17.128,27.52,22.792l0,0c17.463,6.725,18.395,12.055,20.646,24.934c0.047,0.266,0.021,0.54-0.076,0.792
		l-0.873,2.292C55.682,59.502,55.122,59.885,54.502,59.885z M3.022,11.186c0.301,2.109,2.953,5.903,4.622,7.875
		c10.18,11.614,18.082,14.355,25.724,17.007c2.44,0.846,4.964,1.722,7.499,2.867c5.797,2.618,9.657,7.715,12.02,11.979
		c-1.809-8.543-4.408-12.071-17.758-17.211C19.617,27.73,8.326,12.756,6.22,9.814C6.21,9.801,6.159,9.728,6.15,9.714L6.119,9.67
		c-0.031-0.03-0.062-0.061-0.092-0.094C5.688,9.198,5.23,8.989,4.74,8.989c-0.958,0-1.738,0.78-1.738,1.739l0.021,0.14
		C3.034,10.976,3.033,11.082,3.022,11.186z"/>
	<path d="M59.834,113.511c-0.828,0-1.5-0.671-1.5-1.5s0.672-1.5,1.5-1.5c7.693,0,11.451-3.863,11.841-4.288
		c9.023-11.947,16.258-11.722,16.568-11.71c0.001,0,0.002,0,0.003,0c9.195,0,13.015,6.439,14.455,10.163
		C114.306,91.678,114.005,63.993,114,63.701c0-12.135-4.095-23.586-11.843-33.138c-0.521-0.644-0.423-1.588,0.22-2.11
		c0.644-0.521,1.587-0.424,2.11,0.22C112.673,38.766,117,50.87,117,63.677c0.021,1.276,0.346,31.972-13.993,44.946
		c-0.405,0.367-0.981,0.483-1.495,0.306c-0.517-0.178-0.896-0.623-0.989-1.162c-0.075-0.415-1.961-10.257-12.354-10.257
		c-0.105,0-6.191,0.027-14.136,10.569C73.781,108.376,69.245,113.511,59.834,113.511z"/>
	<path d="M97.488,24.943c-0.36,0-0.723-0.129-1.01-0.391c-10.1-9.192-23.099-14.254-36.604-14.254c-0.828,0-1.5-0.671-1.5-1.5
		s0.672-1.5,1.5-1.5c14.254,0,27.97,5.34,38.623,15.036c0.612,0.558,0.657,1.506,0.1,2.119
		C98.302,24.778,97.896,24.943,97.488,24.943z"/>
	<path d="M85,61.344c-6.524,0-11.832-5.308-11.832-11.833S78.476,37.678,85,37.678c6.525,0,11.834,5.308,11.834,11.833
		S91.525,61.344,85,61.344z M85,40.678c-4.87,0-8.832,3.962-8.832,8.833S80.13,58.344,85,58.344c4.871,0,8.834-3.962,8.834-8.833
		S89.871,40.678,85,40.678z"/>
	<path d="M85.168,69.927c-8.982,0-17.035-6.01-19.581-14.616c-0.235-0.794,0.219-1.629,1.013-1.864
		c0.794-0.233,1.629,0.218,1.864,1.013c2.172,7.341,9.041,12.468,16.704,12.468c9.604,0,17.416-7.813,17.416-17.417
		c0-5.615-2.732-10.918-7.31-14.187c-0.674-0.481-0.83-1.418-0.349-2.092c0.482-0.675,1.417-0.83,2.093-0.349
		c5.363,3.83,8.565,10.046,8.565,16.628C105.584,60.769,96.426,69.927,85.168,69.927z"/>
	<circle cx="85.168" cy="49.511" r="2.566"/>
	<path d="M59.813,82.385c-0.1,0-0.2-0.01-0.301-0.03c-0.697-0.142-1.198-0.755-1.2-1.466L58.25,53.973
		c-0.002-0.793,0.614-1.45,1.405-1.5c0.251-0.017,2.527-0.105,4.452,1.7c1.608,1.51,2.424,3.825,2.424,6.879
		c0,0.053-0.003,0.107-0.009,0.16c-0.045,0.426-1.165,10.544-5.331,20.265C60.951,82.036,60.403,82.385,59.813,82.385z
		 M61.254,55.81l0.038,16.211c1.581-5.728,2.163-10.4,2.239-11.052c-0.013-2.15-0.51-3.7-1.478-4.609
		C61.794,56.116,61.519,55.938,61.254,55.81z"/>
	<path d="M60.102,92.724c-0.339,0-0.619-0.068-0.845-0.162c-0.765-0.319-1.126-1.197-0.808-1.962
		c0.276-0.662,0.968-1.024,1.65-0.899c0.288-0.071,1.951-0.671,5.162-5.37c1.749-2.562,3.765-3.967,5.989-4.174
		c3.807-0.362,7.349,2.831,10.644,6.126l2.604,2.342c3.566-1.402,17.667-7.991,20.184-25.33c0.045-0.233,2.856-14.714-8.304-27.289
		c-0.55-0.62-0.493-1.568,0.126-2.118c0.621-0.551,1.567-0.493,2.118,0.126c12.192,13.739,9.147,29.153,9.013,29.802
		c-3.082,21.252-22.807,27.889-23.006,27.953c-0.507,0.166-1.066,0.047-1.467-0.312l-3.332-3c-2.726-2.723-5.775-5.546-8.301-5.315
		c-1.312,0.123-2.551,1.064-3.791,2.879C63.977,91.529,61.522,92.724,60.102,92.724z"/>
	<path d="M65,59.843c-0.62,0-1.179-0.382-1.401-0.964l-0.875-2.292c-0.097-0.253-0.123-0.527-0.076-0.793
		c2.251-12.878,3.182-18.208,20.647-24.933l0,0c14.71-5.664,25.527-20.014,27.546-22.833l0.252-0.357
		c0.107-0.156,0.239-0.286,0.388-0.387c0.882-0.853,2.059-1.335,3.279-1.335c2.614,0,4.74,2.126,4.74,4.739
		c0,0.058-0.003,0.115-0.007,0.172c0.007,0.071,0.009,0.143,0.005,0.215c-0.208,3.706-4.827,9.264-5.354,9.885
		c-10.735,12.249-19.019,15.123-27.029,17.901c-2.486,0.863-4.835,1.677-7.248,2.767c-9.564,4.32-13.391,17.01-13.428,17.138
		c-0.182,0.617-0.737,1.051-1.38,1.076C65.039,59.843,65.02,59.843,65,59.843z M113.384,9.628l-0.057,0.081
		c-2.153,3.007-13.446,17.981-28.954,23.952l0,0c-13.354,5.142-15.952,8.67-17.762,17.216c2.362-4.264,6.223-9.364,12.021-11.983
		c2.536-1.145,5.059-2.021,7.499-2.867c7.642-2.651,15.544-5.392,25.74-17.025c1.658-1.962,4.319-5.771,4.608-7.871
		c-0.011-0.091-0.013-0.183-0.005-0.275c0.005-0.066,0.014-0.13,0.022-0.195c0.002-0.933-0.778-1.712-1.738-1.712
		c-0.49,0-0.946,0.208-1.284,0.585C113.446,9.567,113.416,9.598,113.384,9.628z"/>
</g>
<g>
</g>
<g>
</g>
<g>
</g>
<g>
</g>
<g>
</g>
<g>
</g>
<g>
</g>
<g>
</g>
<g>
</g>
<g>
</g>
<g>
</g>
<g>
</g>
<g>
</g>
<g>
</g>
<g>
</g>
</svg>
